<?xml version="1.0" encoding="iso-8859-1"?>
<!-- Uploaded to: SVG Repo, www.svgrepo.com, Generator: SVG Repo Mixer Tools -->
<svg fill="#000000" height="48" width="48" version="1.1" id="Layer_1" xmlns="http://www.w3.org/2000/svg" xmlns:xlink="http://www.w3.org/1999/xlink" 
	 viewBox="0 0 512 512" xml:space="preserve">
<g>
	<g>
		<path d="M256,0c-42.351,0-76.8,34.449-76.8,76.8c0,42.351,34.449,76.8,76.8,76.8c42.351,0,76.8-34.449,76.8-76.8
			C332.8,34.449,298.351,0,256,0z M256,128c-28.279,0-51.2-22.921-51.2-51.2s22.921-51.2,51.2-51.2c28.279,0,51.2,22.921,51.2,51.2
			S284.279,128,256,128z"/>
	</g>
</g>
<g>
	<g>
		<path d="M358.4,256h-15.872l-10.138-55.774c-2.219-12.177-12.817-21.026-25.19-21.026H204.8c-12.373,0-22.972,8.849-25.182,21.026
			L169.472,256H153.6c-14.14,0-25.6,11.46-25.6,25.6v51.2c0,14.14,11.46,25.6,25.6,25.6h25.6v128c0,14.14,11.46,25.6,25.6,25.6
			h102.4c14.14,0,25.6-11.46,25.6-25.6v-128h25.6c14.14,0,25.6-11.46,25.6-25.6v-51.2C384,267.46,372.54,256,358.4,256z
			 M268.8,204.8h38.4l9.31,51.2H268.8V204.8z M204.8,204.8h38.4V256h-47.71L204.8,204.8z M307.2,486.4H204.8v-128h102.4V486.4z
			 M358.4,332.8H153.6v-51.2h204.8V332.8z"/>
	</g>
</g>
</svg>